<svg xmlns="http://www.w3.org/2000/svg" viewBox="0 0 623.62 993.91"><defs><style>.cls-1{fill:#302414;}</style></defs><g id="Layer_2" data-name="Layer 2"><g id="Layer_1-2" data-name="Layer 1"><path class="cls-1" d="M335.16,111.46h-.9C309.89,52.34,278.31,9.93,236.34,9.93c-47.38,0-73.1,60-73.1,128.6,0,83.93,44.67,130.41,102,130.41,29.78,0,57.31-8.57,76.26-44.67l2.26,1.35C326.14,287,276.5,324.9,203.4,324.9c-89.35,0-155.23-61.82-155.23-155.68C48.17,67.24,127.14,0,223.25,0,267,0,287.33,12.63,302.67,12.63,314,12.63,320.72,9,332.46,0Z"/><path class="cls-1" d="M502.3,319.48v.91H344.36v-.91c19.4-15.34,24.37-22.56,24.37-52.34V57.76c0-29.78-5-37-24.37-52.35v-.9H502.3v.9C482.89,20.76,477.93,28,477.93,57.76V267.14C477.93,296.92,482.89,304.14,502.3,319.48Z"/><path class="cls-1" d="M204.42,352.16c69.49,0,118.22,24.82,118.22,85.74,0,51-48.73,81.23-103.78,81.23,49.18,2.25,75.81,17.59,89.34,58.66l11.28,33.84c9.48,28,16.7,40.61,42,55.51v.9H227c-11.28-14.44-16.7-29.33-21.66-48.74l-16.25-62.72c-5.41-21.21-15.34-33.84-45.12-33.84H133.57v92c0,29.78,5,37,24.37,52.35v.9H0v-.9c19.4-15.35,24.37-22.57,24.37-52.35V405.41c0-29.78-5-37-24.37-52.34v-.91ZM133.57,510.55h17.6c38.81,0,57.76-31.59,57.76-73.1s-19-73.1-57.76-73.1h-17.6Z"/><path class="cls-1" d="M615,459.11h-.9C589.77,400,558.19,357.58,516.22,357.58c-47.38,0-73.1,60-73.1,128.61,0,83.93,44.67,130.41,102,130.41,29.78,0,57.31-8.58,76.26-44.68l2.26,1.36c-17.6,61.37-67.24,99.27-140.34,99.27-89.35,0-155.23-61.82-155.23-155.68,0-102,79-169.22,175.08-169.22,43.78,0,64.08,12.64,79.42,12.64,11.29,0,18.05-3.61,29.79-12.64Z"/><path class="cls-1" d="M381.06,697.11c17.81,0,28-1.27,34.77-4.24l14.42,87.34h-.85c-25.86-43.67-46.22-71.65-102.61-71.65h-36V832.79h27.14c34.34,0,50-9.75,62.75-49.19h.85V894.69h-.85c-12.72-39-28.41-49.18-62.75-49.18H290.75v137h41.56c61.05,0,81-38.58,106.42-79.71h.85L426,993.91H165.25v-.85c18.23-14.42,22.9-21.2,22.9-49.18V747.14c0-28-4.67-34.77-22.9-49.18v-.85Z"/></g></g></svg>